<?xml version="1.0" encoding="UTF-8" standalone="no"?>
<!-- Created with Inkscape (http://www.inkscape.org/) -->

<svg
   xmlns:dc="http://purl.org/dc/elements/1.1/"
   xmlns:cc="http://creativecommons.org/ns#"
   xmlns:rdf="http://www.w3.org/1999/02/22-rdf-syntax-ns#"
   xmlns:svg="http://www.w3.org/2000/svg"
   xmlns="http://www.w3.org/2000/svg"
   xmlns:sodipodi="http://sodipodi.sourceforge.net/DTD/sodipodi-0.dtd"
   xmlns:inkscape="http://www.inkscape.org/namespaces/inkscape"
   width="1300"
   height="1024"
   viewBox="0 0 1300 1024"
   id="svg2"
   version="1.1"
   inkscape:version="0.91 r13725"
   sodipodi:docname="boxInterface.svg">
  <defs
     id="defs4">
    <inkscape:perspective
       sodipodi:type="inkscape:persp3d"
       inkscape:vp_x="-1760.3527 : -560.24333 : 1"
       inkscape:vp_y="3933.2252 : 901.60835 : 0"
       inkscape:vp_z="741.55911 : -2955.6623 : 1"
       inkscape:persp3d-origin="-1180.6673 : -1911.8272 : 1"
       id="perspective3436" />
  </defs>
  <sodipodi:namedview
     id="base"
     pagecolor="#ffffff"
     bordercolor="#666666"
     borderopacity="1.0"
     inkscape:pageopacity="0.0"
     inkscape:pageshadow="2"
     inkscape:zoom="0.35355339"
     inkscape:cx="-129.10706"
     inkscape:cy="658.38653"
     inkscape:document-units="px"
     inkscape:current-layer="layer1"
     showgrid="true"
     units="px"
     inkscape:window-width="1855"
     inkscape:window-height="1056"
     inkscape:window-x="65"
     inkscape:window-y="24"
     inkscape:window-maximized="1">
    <inkscape:grid
       type="xygrid"
       id="grid3412" />
  </sodipodi:namedview>
  <metadata
     id="metadata7">
    <rdf:RDF>
      <cc:Work
         rdf:about="">
        <dc:format>image/svg+xml</dc:format>
        <dc:type
           rdf:resource="http://purl.org/dc/dcmitype/StillImage" />
        <dc:title />
      </cc:Work>
    </rdf:RDF>
  </metadata>
  <g
     inkscape:label="Layer 1"
     inkscape:groupmode="layer"
     id="layer1"
     transform="translate(0,-28.362114)">
    <g
       id="backgound"
       transform="translate(0,2)">
      <rect
         y="28.362114"
         x="0"
         height="1024"
         width="1024"
         id="rect3060"
         style="fill:#004455;fill-opacity:1;stroke:none" />
      <path
         style="fill:none;stroke:#000000;stroke-width:5.02390575;stroke-linecap:butt;stroke-linejoin:miter;stroke-miterlimit:4;stroke-dasharray:none;stroke-opacity:1"
         d="m 3.2524199,1051.9831 0,-1020.355194"
         id="path5935"
         inkscape:connector-curvature="0" />
    </g>
    <path
       inkscape:connector-curvature="0"
       id="path5935-0"
       d="m 1021.446,1051.8655 0,-1021.292947"
       style="fill:none;stroke:#000000;stroke-width:5.03744745;stroke-linecap:butt;stroke-linejoin:miter;stroke-miterlimit:4;stroke-dasharray:none;stroke-opacity:1" />
    <path
       inkscape:connector-curvature="0"
       id="path6019"
       d="m 0.769983,31.073606 1023.203317,0"
       style="fill:none;stroke:#000000;stroke-width:5.01218653;stroke-linecap:butt;stroke-linejoin:miter;stroke-miterlimit:4;stroke-dasharray:none;stroke-opacity:1" />
    <path
       inkscape:connector-curvature="0"
       id="path6019-8"
       d="m 1.5786075,1049.4457 1022.2702925,0"
       style="fill:none;stroke:#000000;stroke-width:5.00990105;stroke-linecap:butt;stroke-linejoin:miter;stroke-miterlimit:4;stroke-dasharray:none;stroke-opacity:1" />
    <rect
       y="605.64246"
       x="1156.8652"
       height="18.696157"
       width="45.534031"
       id="rect4490"
       style="fill:#6f917c;fill-opacity:1;stroke:none" />
    <g
       id="unhappy"
       inkscape:label="#unhappy"
       transform="matrix(1.0052796,0,0,1.0052796,1128.6763,94.793235)"
       style="stroke:#000000;stroke-opacity:1">
      <circle
         transform="matrix(0.20149604,0,0,0.20149604,2.2081555,50.230788)"
         id="circle3"
         r="236.967"
         cy="236.967"
         cx="236.967"
         style="fill:#ffc10e;stroke:#000000;stroke-opacity:1" />
      <g
         transform="matrix(0.20149604,0,0,0.20149604,2.2081555,50.230788)"
         id="g5"
         style="stroke:#000000;stroke-opacity:1">
        <path
           id="path7"
           d="m 356.671,354.1 c -66.23,-67.618 -174.251,-67.337 -240.096,0.703 -8.389,8.666 4.827,21.908 13.227,13.227 58.87,-60.834 154.379,-61.204 213.641,-0.703 8.453,8.633 21.673,-4.606 13.228,-13.227 l 0,0 z"
           style="fill:#333333;stroke:#000000;stroke-opacity:1"
           inkscape:connector-curvature="0" />
        <circle
           id="circle9"
           r="37.216"
           cy="155.23199"
           cx="164.938"
           style="fill:#333333;stroke:#000000;stroke-opacity:1" />
        <circle
           id="circle11"
           r="37.216"
           cy="155.23199"
           cx="305.66699"
           style="fill:#333333;stroke:#000000;stroke-opacity:1" />
      </g>
      <path
         id="path13"
         d="m 71.354943,88.235356 c 0,0 -5.544564,6.825479 -5.544564,13.866764 0,3.06334 2.480418,5.54537 5.543759,5.54617 3.066365,-9.3e-4 5.547589,-2.48343 5.547589,-5.54677 0,-3.409523 -5.546784,-13.866164 -5.546784,-13.866164 z"
         style="fill:#a2d4de;stroke:#000000;stroke-opacity:1"
         inkscape:connector-curvature="0" />
    </g>
    <g
       id="happy"
       transform="matrix(0.45729092,0,0,0.45729092,1052.783,249.31937)"
       style="stroke:#000000;stroke-opacity:1">
      <circle
         transform="matrix(0.44295807,0,0,0.44295807,171,-227.56882)"
         id="circle3025"
         r="236.966"
         cy="236.966"
         cx="236.966"
         style="fill:#ffc10e;stroke:#000000;stroke-opacity:1" />
      <path
         id="path3027"
         d="m 207.0528,-122.5315 c 0,38.054969 30.85159,68.906559 68.90656,68.906559 38.05674,0 68.90966,-30.85159 68.90966,-68.906559 l -137.81622,0 z"
         style="fill:#333333;stroke:#000000;stroke-opacity:1"
         inkscape:connector-curvature="0" />
      <path
         id="path3029"
         d="m 237.64393,-95.255031 c 0,21.16055 17.15621,38.31499 38.31499,38.31499 21.16232,0 38.31675,-17.15621 38.31675,-38.31499 l -76.63174,0 z"
         style="fill:#ca2027;stroke:#000000;stroke-opacity:1"
         inkscape:connector-curvature="0" />
      <g
         transform="matrix(0.44295807,0,0,0.44295807,171,-227.56882)"
         id="g3031"
         style="stroke:#000000;stroke-opacity:1">
        <circle
           id="circle3033"
           r="37.216"
           cy="155.231"
           cx="164.937"
           style="fill:#333333;stroke:#000000;stroke-opacity:1" />
        <circle
           id="circle3035"
           r="37.216"
           cy="155.231"
           cx="305.664"
           style="fill:#333333;stroke:#000000;stroke-opacity:1" />
      </g>
    </g>
    <g
       id="smiling"
       inkscape:label="#smiling"
       transform="translate(986.8513,322.85669)"
       style="stroke:#000000;stroke-opacity:1">
      <g
         id="g3898"
         style="stroke:#000000;stroke-opacity:1">
        <circle
           style="fill:#ffc10e;stroke:#000000;stroke-opacity:1"
           cx="236.967"
           cy="236.967"
           r="236.967"
           id="circle3074"
           transform="matrix(0.20255985,0,0,0.20255985,144,-177.63883)" />
      </g>
      <g
         transform="matrix(0.20255985,0,0,0.20255985,144,-177.63883)"
         id="g3076"
         style="stroke:#000000;stroke-opacity:1">
        <circle
           id="circle3078"
           r="37.216"
           cy="155.23199"
           cx="164.938"
           style="fill:#333333;stroke:#000000;stroke-opacity:1" />
        <circle
           id="circle3080"
           r="37.216"
           cy="155.23199"
           cx="305.66699"
           style="fill:#333333;stroke:#000000;stroke-opacity:1" />
        <path
           id="path3082"
           d="m 343.257,316.862 c -59.281,60.329 -154.663,59.854 -213.45,-0.898 -8.4,-8.685 -21.616,4.561 -13.227,13.227 65.769,67.97 173.645,68.34 239.905,0.898 8.459,-8.61 -4.764,-21.844 -13.228,-13.227 l 0,0 z"
           style="fill:#333333;stroke:#000000;stroke-opacity:1"
           inkscape:connector-curvature="0" />
      </g>
    </g>
    <g
       id="sad"
       inkscape:label="#sad"
       transform="matrix(0.81748053,0,0,0.81748053,970.7714,177.27495)"
       style="stroke:#000000;stroke-opacity:1">
      <circle
         transform="matrix(0.24778554,0,0,0.24778554,196,-39.07282)"
         id="circle3168"
         r="236.967"
         cy="236.967"
         cx="236.967"
         style="fill:#ffc10e;stroke:#000000;stroke-opacity:1" />
      <g
         transform="matrix(0.24778554,0,0,0.24778554,196,-39.07282)"
         id="g3170"
         style="stroke:#000000;stroke-opacity:1">
        <path
           id="path3172"
           d="m 356.671,354.1 c -66.226,-67.618 -174.255,-67.337 -240.096,0.703 -8.389,8.666 4.827,21.912 13.227,13.227 58.87,-60.83 154.386,-61.204 213.641,-0.703 8.453,8.633 21.673,-4.606 13.228,-13.227 l 0,0 z"
           style="fill:#333333;stroke:#000000;stroke-opacity:1"
           inkscape:connector-curvature="0" />
        <circle
           id="circle3174"
           r="37.216"
           cy="155.23199"
           cx="164.938"
           style="fill:#333333;stroke:#000000;stroke-opacity:1" />
        <circle
           id="circle3176"
           r="37.216"
           cy="155.23199"
           cx="305.66699"
           style="fill:#333333;stroke:#000000;stroke-opacity:1" />
      </g>
    </g>
    <g
       id="confused"
       transform="translate(291.30826,228.54004)"
       style="stroke:#000000;stroke-opacity:1">
      <circle
         transform="matrix(0.2025607,0,0,0.2025607,839.61227,-83.24908)"
         id="circle3121"
         r="236.966"
         cy="236.966"
         cx="236.966"
         style="fill:#ffc10e;stroke:#000000;stroke-opacity:1" />
      <g
         transform="matrix(0.2025607,0,0,0.2025607,839.61227,-83.24908)"
         id="g3123"
         style="stroke:#000000;stroke-opacity:1">
        <circle
           id="circle3125"
           r="37.216"
           cy="155.231"
           cx="164.937"
           style="fill:#333333;stroke:#000000;stroke-opacity:1" />
        <circle
           id="circle3127"
           r="37.216"
           cy="155.231"
           cx="305.664"
           style="fill:#333333;stroke:#000000;stroke-opacity:1" />
        <path
           id="path3129"
           d="m 105.278,326.581 c 86.386,0 172.776,0 259.162,0 12.067,0 12.067,-18.709 0,-18.709 -86.386,0 -172.776,0 -259.162,0 -12.067,0 -12.067,18.709 0,18.709 l 0,0 z"
           style="fill:#333333;stroke:#000000;stroke-opacity:1"
           inkscape:connector-curvature="0" />
      </g>
    </g>
    <g
       transform="translate(-10,-6.6075e-5)"
       id="g4649"
       style="fill:#ffc10e;fill-opacity:1;stroke:none;stroke-opacity:1">
      <rect
         y="297.80249"
         x="1153.5743"
         height="627.29376"
         width="72.747971"
         id="rect3060-3"
         style="fill:#ffc10e;fill-opacity:1;stroke:none;stroke-opacity:1" />
      <ellipse
         ry="28.315596"
         rx="17.5"
         cy="122.3156"
         cx="357.5"
         transform="matrix(2.087101,0,0,1.3756927,443.89392,131.3687)"
         id="path4543-5"
         style="fill:#ffc10e;fill-opacity:1;stroke:none;stroke-opacity:1" />
      <ellipse
         ry="28.315596"
         rx="17.5"
         cy="122.3156"
         cx="357.5"
         style="fill:#ffc10e;fill-opacity:1;stroke:none;stroke-opacity:1"
         id="path4647"
         transform="matrix(2.087101,0,0,1.3756927,443.89392,753.21326)" />
    </g>
    <rect
       y="302.58514"
       x="1171.0947"
       height="620"
       width="17.706905"
       id="rect3810"
       style="fill:#d4aa00;fill-opacity:1;stroke:none" />
    <g
       id="reward"
       transform="translate(-10,-18.000066)">
      <rect
         transform="translate(0,28.362183)"
         y="594"
         x="1171"
         height="15"
         width="38"
         id="rect3085"
         style="fill:#d40000;fill-opacity:1;stroke:none" />
      <ellipse
         ry="7.5"
         rx="1.5"
         cy="601.5"
         cx="1168.5"
         transform="translate(2.4921875,28.362183)"
         id="path3099"
         style="fill:#d40000;fill-opacity:1;stroke:none" />
      <ellipse
         ry="7.5"
         rx="1.5"
         cy="601.5"
         cx="1168.5"
         id="path3099-3"
         style="fill:#d40000;fill-opacity:1;stroke:none"
         transform="translate(40.507669,28.360871)" />
    </g>
    <g
       id="g4286"
       transform="matrix(0.733706,0,0,0.733706,-958.68866,158.73018)">
      <rect
         style="fill:#536c5d;fill-opacity:1;fill-rule:evenodd;stroke:#000000;stroke-width:4;stroke-linecap:butt;stroke-linejoin:miter;stroke-miterlimit:4;stroke-dasharray:none;stroke-opacity:1"
         id="box_open"
         width="505.82938"
         height="359.92554"
         x="371.66052"
         y="224.73698" />
      <rect
         y="225.55344"
         x="372.47382"
         height="22.113073"
         width="504.32861"
         id="rect4194"
         style="fill:#000000;fill-opacity:1;stroke:#000000;stroke-width:5.32195377;stroke-miterlimit:4;stroke-dasharray:none;stroke-opacity:1" />
      <rect
         y="227.03445"
         x="854.5155"
         height="355.40533"
         width="22.572172"
         id="rect4198"
         style="fill:#000000;fill-opacity:1;stroke:#000000;stroke-width:4.34464407;stroke-miterlimit:4;stroke-dasharray:none;stroke-opacity:1" />
      <rect
         y="226.7729"
         x="371.91083"
         height="355.92844"
         width="17.438406"
         id="rect4198-3"
         style="fill:#000000;fill-opacity:1;stroke:#000000;stroke-width:3.82155633;stroke-miterlimit:4;stroke-dasharray:none;stroke-opacity:1" />
    </g>
    <g
       id="g4535"
       transform="matrix(0.71035394,0,0,0.71035394,150.12791,212.41827)">
      <path
         inkscape:connector-curvature="0"
         id="path4482-5"
         d="m 878.49515,586.17862 -207.99868,155.63429 0,0 0,0"
         style="fill:none;fill-rule:evenodd;stroke:#000000;stroke-width:2.98331666;stroke-linecap:butt;stroke-linejoin:miter;stroke-miterlimit:4;stroke-dasharray:none;stroke-opacity:1" />
      <rect
         style="fill:#536c5d;fill-opacity:1;fill-rule:evenodd;stroke:#000000;stroke-width:1;stroke-linecap:butt;stroke-linejoin:miter;stroke-miterlimit:4;stroke-dasharray:none;stroke-opacity:1"
         id="rect3531"
         width="503.68564"
         height="139.74654"
         x="371.29581"
         y="586.71039" />
      <rect
         style="fill:#536c5d;fill-opacity:1;fill-rule:evenodd;stroke:#000000;stroke-width:1.11569226;stroke-linecap:butt;stroke-linejoin:miter;stroke-miterlimit:4;stroke-dasharray:none;stroke-opacity:1"
         id="rect3529"
         width="258.08716"
         height="140.1945"
         x="203.97894"
         y="861.78571"
         transform="matrix(0.8033618,-0.59549125,0,1,0,0)" />
      <rect
         transform="matrix(1,0,-0.80124614,0.59833488,0,0)"
         style="fill:#536c5d;fill-opacity:1;fill-rule:evenodd;stroke:#000000;stroke-width:1.29278958;stroke-linecap:butt;stroke-linejoin:miter;stroke-miterlimit:4;stroke-dasharray:none;stroke-opacity:1"
         id="rect3533"
         width="489.02829"
         height="257.18829"
         x="1341.8438"
         y="1211.5782" />
      <rect
         y="741.34729"
         x="162.1178"
         height="140.49898"
         width="505.84473"
         id="rect3480"
         style="fill:#6f917c;fill-opacity:1;fill-rule:evenodd;stroke:#000000;stroke-width:3.0139904;stroke-linecap:butt;stroke-linejoin:miter;stroke-miterlimit:4;stroke-dasharray:none;stroke-opacity:1" />
      <rect
         style="fill:#536c5d;fill-opacity:1;fill-rule:evenodd;stroke:#000000;stroke-width:24.26771736;stroke-linecap:butt;stroke-linejoin:miter;stroke-miterlimit:4;stroke-dasharray:none;stroke-opacity:1"
         id="rect4267"
         width="484.59442"
         height="236.83394"
         x="1176.149"
         y="999.53259"
         transform="matrix(0.9999981,-0.0019515,-0.80337337,0.59547564,0,0)" />
      <rect
         transform="matrix(0.8033618,-0.59549125,0,1,0,0)"
         y="1237.7314"
         x="835.00385"
         height="140.1945"
         width="258.08716"
         id="rect3480-3"
         style="fill:#6f917c;fill-opacity:1;fill-rule:evenodd;stroke:#000000;stroke-width:3.34707665;stroke-linecap:butt;stroke-linejoin:miter;stroke-miterlimit:4;stroke-dasharray:none;stroke-opacity:1" />
      <path
         inkscape:connector-curvature="0"
         id="path4482"
         d="m 371.28414,584.58902 -209.75285,156.44893 0,0 0,0"
         style="fill:none;fill-rule:evenodd;stroke:#000000;stroke-width:3.00370073;stroke-linecap:butt;stroke-linejoin:miter;stroke-miterlimit:4;stroke-dasharray:none;stroke-opacity:1" />
      <path
         inkscape:connector-curvature="0"
         id="path4294"
         d="m 879.4904,585.06274 -509.10974,0 0,0 0,0"
         style="fill:none;fill-rule:evenodd;stroke:#000000;stroke-width:2.9973805;stroke-linecap:butt;stroke-linejoin:miter;stroke-miterlimit:4;stroke-dasharray:none;stroke-opacity:1" />
    </g>
    <rect
       style="fill:#536c5d;fill-opacity:1;fill-rule:evenodd;stroke:#000000;stroke-width:13.57104206;stroke-linecap:butt;stroke-linejoin:miter;stroke-miterlimit:4;stroke-dasharray:none;stroke-opacity:1"
       id="box_opened"
       width="347.78583"
       height="240.57886"
       x="-628.96423"
       y="394.35126"
       transform="matrix(-0.99999949,-0.00101124,0.21644483,0.97629485,0,0)"
       inkscape:label="#box_opened" />
    <rect
       style="fill:#6f917c;fill-opacity:1;fill-rule:evenodd;stroke:#000000;stroke-width:2.75853395;stroke-linecap:butt;stroke-linejoin:miter;stroke-miterlimit:4;stroke-dasharray:none;stroke-opacity:1"
       id="box_closed-"
       width="357.37985"
       height="184.42781"
       x="1262.8003"
       y="1055.9124"
       transform="matrix(1,0,-0.80319369,0.59571796,0,0)"
       inkscape:label="#box_closed" />
  </g>
</svg>
