<?xml version="1.0" encoding="UTF-8" standalone="no"?>
<!-- Created with Inkscape (http://www.inkscape.org/) -->

<svg
   xmlns:dc="http://purl.org/dc/elements/1.1/"
   xmlns:cc="http://creativecommons.org/ns#"
   xmlns:rdf="http://www.w3.org/1999/02/22-rdf-syntax-ns#"
   xmlns:svg="http://www.w3.org/2000/svg"
   xmlns="http://www.w3.org/2000/svg"
   xmlns:sodipodi="http://sodipodi.sourceforge.net/DTD/sodipodi-0.dtd"
   xmlns:inkscape="http://www.inkscape.org/namespaces/inkscape"
   width="1300"
   height="1024"
   viewBox="0 0 1300 1024"
   id="svgInterface"
   version="1.1"
   inkscape:version="0.91 r13725"
   sodipodi:docname="boxInterface.svg">
  <defs
     id="defs4">
    <marker
       inkscape:stockid="Arrow2Lstart"
       orient="auto"
       refY="0.0"
       refX="0.0"
       id="Arrow2Lstart"
       style="overflow:visible"
       inkscape:isstock="true">
      <path
         id="path5225"
         style="fill-rule:evenodd;stroke-width:0.625;stroke-linejoin:round;stroke:#ff2020;stroke-opacity:1;fill:#ff0000;fill-opacity:1"
         d="M 8.7185878,4.0337352 L -2.2072895,0.016013256 L 8.7185884,-4.0017078 C 6.9730900,-1.6296469 6.9831476,1.6157441 8.7185878,4.0337352 z "
         transform="scale(1.1) translate(1,0)" />
    </marker>
    <inkscape:perspective
       sodipodi:type="inkscape:persp3d"
       inkscape:vp_x="-1760.3527 : -560.24333 : 1"
       inkscape:vp_y="3933.2252 : 901.60835 : 0"
       inkscape:vp_z="741.55911 : -2955.6623 : 1"
       inkscape:persp3d-origin="-1180.6673 : -1911.8272 : 1"
       id="perspective3436" />
  </defs>
  <sodipodi:namedview
     id="base"
     pagecolor="#ffffff"
     bordercolor="#666666"
     borderopacity="1.0"
     inkscape:pageopacity="0.0"
     inkscape:pageshadow="2"
     inkscape:zoom="0.31730036"
     inkscape:cx="694.25317"
     inkscape:cy="639.07046"
     inkscape:document-units="px"
     inkscape:current-layer="layer1"
     showgrid="true"
     units="px"
     inkscape:window-width="1615"
     inkscape:window-height="1026"
     inkscape:window-x="1985"
     inkscape:window-y="24"
     inkscape:window-maximized="1">
    <inkscape:grid
       type="xygrid"
       id="grid3412" />
  </sodipodi:namedview>
  <metadata
     id="metadata7">
    <rdf:RDF>
      <cc:Work
         rdf:about="">
        <dc:format>image/svg+xml</dc:format>
        <dc:type
           rdf:resource="http://purl.org/dc/dcmitype/StillImage" />
        <dc:title />
      </cc:Work>
    </rdf:RDF>
  </metadata>
  <g
     inkscape:label="Layer 1"
     inkscape:groupmode="layer"
     id="layer1"
     transform="translate(0,-28.362114)">
    <g
       id="backgound"
       transform="translate(0,2)">
      <rect
         y="28.362114"
         x="0"
         height="1024"
         width="1024"
         id="rect3060"
         style="fill:#004455;fill-opacity:1;stroke:none" />
      <path
         style="fill:none;stroke:#000000;stroke-width:5.02390575;stroke-linecap:butt;stroke-linejoin:miter;stroke-miterlimit:4;stroke-dasharray:none;stroke-opacity:1"
         d="m 3.2524199,1051.9831 0,-1020.355194"
         id="path5935"
         inkscape:connector-curvature="0" />
    </g>
    <path
       inkscape:connector-curvature="0"
       id="path5935-0"
       d="m 1021.446,1051.8655 0,-1021.292947"
       style="fill:none;stroke:#000000;stroke-width:5.03744745;stroke-linecap:butt;stroke-linejoin:miter;stroke-miterlimit:4;stroke-dasharray:none;stroke-opacity:1" />
    <path
       inkscape:connector-curvature="0"
       id="path6019"
       d="m 0.769983,31.073606 1023.203317,0"
       style="fill:none;stroke:#000000;stroke-width:5.01218653;stroke-linecap:butt;stroke-linejoin:miter;stroke-miterlimit:4;stroke-dasharray:none;stroke-opacity:1" />
    <path
       inkscape:connector-curvature="0"
       id="path6019-8"
       d="m 1.5786075,1049.4457 1022.2702925,0"
       style="fill:none;stroke:#000000;stroke-width:5.00990105;stroke-linecap:butt;stroke-linejoin:miter;stroke-miterlimit:4;stroke-dasharray:none;stroke-opacity:1" />
    <rect
       y="607.64246"
       x="1168.8652"
       height="18.696157"
       width="45.534031"
       id="rect4490"
       style="fill:#6f917c;fill-opacity:1;stroke:none" />
    <g
       id="unhappy"
       inkscape:label="#unhappy"
       transform="matrix(1.0052796,0,0,1.0052796,1140.6763,96.793235)"
       style="stroke:#000000;stroke-opacity:1">
      <circle
         transform="matrix(0.20149604,0,0,0.20149604,2.2081555,50.230788)"
         id="circle3"
         r="236.967"
         cy="236.967"
         cx="236.967"
         style="fill:#ffc10e;stroke:#000000;stroke-opacity:1" />
      <g
         transform="matrix(0.20149604,0,0,0.20149604,2.2081555,50.230788)"
         id="g5"
         style="stroke:#000000;stroke-opacity:1">
        <path
           id="path7"
           d="m 356.671,354.1 c -66.23,-67.618 -174.251,-67.337 -240.096,0.703 -8.389,8.666 4.827,21.908 13.227,13.227 58.87,-60.834 154.379,-61.204 213.641,-0.703 8.453,8.633 21.673,-4.606 13.228,-13.227 l 0,0 z"
           style="fill:#333333;stroke:#000000;stroke-opacity:1"
           inkscape:connector-curvature="0" />
        <circle
           id="circle9"
           r="37.216"
           cy="155.23199"
           cx="164.938"
           style="fill:#333333;stroke:#000000;stroke-opacity:1" />
        <circle
           id="circle11"
           r="37.216"
           cy="155.23199"
           cx="305.66699"
           style="fill:#333333;stroke:#000000;stroke-opacity:1" />
      </g>
      <path
         id="path13"
         d="m 71.354943,88.235356 c 0,0 -5.544564,6.825479 -5.544564,13.866764 0,3.06334 2.480418,5.54537 5.543759,5.54617 3.066365,-9.3e-4 5.547589,-2.48343 5.547589,-5.54677 0,-3.409523 -5.546784,-13.866164 -5.546784,-13.866164 z"
         style="fill:#a2d4de;stroke:#000000;stroke-opacity:1"
         inkscape:connector-curvature="0" />
    </g>
    <g
       id="happy"
       transform="matrix(0.45729092,0,0,0.45729092,1064.783,251.31937)"
       style="stroke:#000000;stroke-opacity:1">
      <circle
         transform="matrix(0.44295807,0,0,0.44295807,171,-227.56882)"
         id="circle3025"
         r="236.966"
         cy="236.966"
         cx="236.966"
         style="fill:#ffc10e;stroke:#000000;stroke-opacity:1" />
      <path
         id="path3027"
         d="m 207.0528,-122.5315 c 0,38.054969 30.85159,68.906559 68.90656,68.906559 38.05674,0 68.90966,-30.85159 68.90966,-68.906559 l -137.81622,0 z"
         style="fill:#333333;stroke:#000000;stroke-opacity:1"
         inkscape:connector-curvature="0" />
      <path
         id="path3029"
         d="m 237.64393,-95.255031 c 0,21.16055 17.15621,38.31499 38.31499,38.31499 21.16232,0 38.31675,-17.15621 38.31675,-38.31499 l -76.63174,0 z"
         style="fill:#ca2027;stroke:#000000;stroke-opacity:1"
         inkscape:connector-curvature="0" />
      <g
         transform="matrix(0.44295807,0,0,0.44295807,171,-227.56882)"
         id="g3031"
         style="stroke:#000000;stroke-opacity:1">
        <circle
           id="circle3033"
           r="37.216"
           cy="155.231"
           cx="164.937"
           style="fill:#333333;stroke:#000000;stroke-opacity:1" />
        <circle
           id="circle3035"
           r="37.216"
           cy="155.231"
           cx="305.664"
           style="fill:#333333;stroke:#000000;stroke-opacity:1" />
      </g>
    </g>
    <g
       id="smiling"
       inkscape:label="#smiling"
       transform="translate(998.8513,324.85669)"
       style="stroke:#000000;stroke-opacity:1">
      <g
         id="g3898"
         style="stroke:#000000;stroke-opacity:1">
        <circle
           style="fill:#ffc10e;stroke:#000000;stroke-opacity:1"
           cx="236.967"
           cy="236.967"
           r="236.967"
           id="circle3074"
           transform="matrix(0.20255985,0,0,0.20255985,144,-177.63883)" />
      </g>
      <g
         transform="matrix(0.20255985,0,0,0.20255985,144,-177.63883)"
         id="g3076"
         style="stroke:#000000;stroke-opacity:1">
        <circle
           id="circle3078"
           r="37.216"
           cy="155.23199"
           cx="164.938"
           style="fill:#333333;stroke:#000000;stroke-opacity:1" />
        <circle
           id="circle3080"
           r="37.216"
           cy="155.23199"
           cx="305.66699"
           style="fill:#333333;stroke:#000000;stroke-opacity:1" />
        <path
           id="path3082"
           d="m 343.257,316.862 c -59.281,60.329 -154.663,59.854 -213.45,-0.898 -8.4,-8.685 -21.616,4.561 -13.227,13.227 65.769,67.97 173.645,68.34 239.905,0.898 8.459,-8.61 -4.764,-21.844 -13.228,-13.227 l 0,0 z"
           style="fill:#333333;stroke:#000000;stroke-opacity:1"
           inkscape:connector-curvature="0" />
      </g>
    </g>
    <g
       id="sad"
       inkscape:label="#sad"
       transform="matrix(0.81748053,0,0,0.81748053,982.7714,179.27495)"
       style="stroke:#000000;stroke-opacity:1">
      <circle
         transform="matrix(0.24778554,0,0,0.24778554,196,-39.07282)"
         id="circle3168"
         r="236.967"
         cy="236.967"
         cx="236.967"
         style="fill:#ffc10e;stroke:#000000;stroke-opacity:1" />
      <g
         transform="matrix(0.24778554,0,0,0.24778554,196,-39.07282)"
         id="g3170"
         style="stroke:#000000;stroke-opacity:1">
        <path
           id="path3172"
           d="m 356.671,354.1 c -66.226,-67.618 -174.255,-67.337 -240.096,0.703 -8.389,8.666 4.827,21.912 13.227,13.227 58.87,-60.83 154.386,-61.204 213.641,-0.703 8.453,8.633 21.673,-4.606 13.228,-13.227 l 0,0 z"
           style="fill:#333333;stroke:#000000;stroke-opacity:1"
           inkscape:connector-curvature="0" />
        <circle
           id="circle3174"
           r="37.216"
           cy="155.23199"
           cx="164.938"
           style="fill:#333333;stroke:#000000;stroke-opacity:1" />
        <circle
           id="circle3176"
           r="37.216"
           cy="155.23199"
           cx="305.66699"
           style="fill:#333333;stroke:#000000;stroke-opacity:1" />
      </g>
    </g>
    <g
       id="confused"
       transform="translate(303.30826,230.54004)"
       style="stroke:#000000;stroke-opacity:1">
      <circle
         transform="matrix(0.2025607,0,0,0.2025607,839.61227,-83.24908)"
         id="circle3121"
         r="236.966"
         cy="236.966"
         cx="236.966"
         style="fill:#ffc10e;stroke:#000000;stroke-opacity:1" />
      <g
         transform="matrix(0.2025607,0,0,0.2025607,839.61227,-83.24908)"
         id="g3123"
         style="stroke:#000000;stroke-opacity:1">
        <circle
           id="circle3125"
           r="37.216"
           cy="155.231"
           cx="164.937"
           style="fill:#333333;stroke:#000000;stroke-opacity:1" />
        <circle
           id="circle3127"
           r="37.216"
           cy="155.231"
           cx="305.664"
           style="fill:#333333;stroke:#000000;stroke-opacity:1" />
        <path
           id="path3129"
           d="m 105.278,326.581 c 86.386,0 172.776,0 259.162,0 12.067,0 12.067,-18.709 0,-18.709 -86.386,0 -172.776,0 -259.162,0 -12.067,0 -12.067,18.709 0,18.709 l 0,0 z"
           style="fill:#333333;stroke:#000000;stroke-opacity:1"
           inkscape:connector-curvature="0" />
      </g>
    </g>
    <g
       transform="translate(2,1.9999339)"
       id="g4649"
       style="fill:#ffc10e;fill-opacity:1;stroke:none;stroke-opacity:1">
      <rect
         y="297.80249"
         x="1153.5743"
         height="627.29376"
         width="72.747971"
         id="rect3060-3"
         style="fill:#ffc10e;fill-opacity:1;stroke:none;stroke-opacity:1" />
      <ellipse
         ry="28.315596"
         rx="17.5"
         cy="122.3156"
         cx="357.5"
         transform="matrix(2.087101,0,0,1.3756927,443.89392,131.3687)"
         id="path4543-5"
         style="fill:#ffc10e;fill-opacity:1;stroke:none;stroke-opacity:1" />
      <ellipse
         ry="28.315596"
         rx="17.5"
         cy="122.3156"
         cx="357.5"
         style="fill:#ffc10e;fill-opacity:1;stroke:none;stroke-opacity:1"
         id="path4647"
         transform="matrix(2.087101,0,0,1.3756927,443.89392,753.21326)" />
    </g>
    <rect
       y="304.58514"
       x="1183.0947"
       height="620"
       width="17.706905"
       id="rect3810"
       style="fill:#d4aa00;fill-opacity:1;stroke:none" />
    <g
       id="reward"
       transform="translate(2,-16.000066)">
      <rect
         transform="translate(0,28.362183)"
         y="594"
         x="1171"
         height="15"
         width="38"
         id="rect3085"
         style="fill:#d40000;fill-opacity:1;stroke:none" />
      <ellipse
         ry="7.5"
         rx="1.5"
         cy="601.5"
         cx="1168.5"
         transform="translate(2.4921875,28.362183)"
         id="path3099"
         style="fill:#d40000;fill-opacity:1;stroke:none" />
      <ellipse
         ry="7.5"
         rx="1.5"
         cy="601.5"
         cx="1168.5"
         id="path3099-3"
         style="fill:#d40000;fill-opacity:1;stroke:none"
         transform="translate(40.507669,28.360871)" />
    </g>
    <path
       style="fill:none;fill-rule:evenodd;stroke:#000000;stroke-width:2.11921072;stroke-linecap:butt;stroke-linejoin:miter;stroke-miterlimit:4;stroke-dasharray:none;stroke-opacity:1"
       d="m 774.1704,506.81256 -147.75268,110.55543 0,0 0,0"
       id="path4482-5"
       inkscape:connector-curvature="0" />
    <rect
       y="507.19031"
       x="413.87936"
       height="99.269501"
       width="357.79507"
       id="rect3531"
       style="fill:#536c5d;fill-opacity:1;fill-rule:evenodd;stroke:#000000;stroke-width:0.71035391;stroke-linecap:butt;stroke-linejoin:miter;stroke-miterlimit:4;stroke-dasharray:none;stroke-opacity:1" />
    <rect
       transform="matrix(0.80336179,-0.59549125,0,1,0,0)"
       y="813.87335"
       x="331.77185"
       height="99.587715"
       width="183.33324"
       id="rect3529"
       style="fill:#536c5d;fill-opacity:1;fill-rule:evenodd;stroke:#000000;stroke-width:0.79253638;stroke-linecap:butt;stroke-linejoin:miter;stroke-miterlimit:4;stroke-dasharray:none;stroke-opacity:1" />
    <rect
       y="1011.7659"
       x="1224.3934"
       height="182.69472"
       width="347.38318"
       id="rect3533"
       style="fill:#536c5d;fill-opacity:1;fill-rule:evenodd;stroke:#000000;stroke-width:0.91833818;stroke-linecap:butt;stroke-linejoin:miter;stroke-miterlimit:4;stroke-dasharray:none;stroke-opacity:1"
       transform="matrix(1,0,-0.80124614,0.59833488,0,0)" />
    <rect
       style="fill:#6f917c;fill-opacity:1;fill-rule:evenodd;stroke:#000000;stroke-width:2.14100003;stroke-linecap:butt;stroke-linejoin:miter;stroke-miterlimit:4;stroke-dasharray:none;stroke-opacity:1"
       id="rect3480"
       width="359.3288"
       height="99.804001"
       x="265.28894"
       y="617.03723" />
    <rect
       transform="matrix(0.9999981,-0.00195151,-0.80337336,0.59547564,0,0)"
       y="862.75818"
       x="1108.3148"
       height="168.23592"
       width="344.23355"
       id="rect4267"
       style="fill:#3e4837;fill-opacity:1;fill-rule:evenodd;stroke:#000000;stroke-width:17.23866844;stroke-linecap:butt;stroke-linejoin:miter;stroke-miterlimit:4;stroke-dasharray:none;stroke-opacity:1" />
    <rect
       style="fill:#6f917c;fill-opacity:1;fill-rule:evenodd;stroke:#000000;stroke-width:2.37760901;stroke-linecap:butt;stroke-linejoin:miter;stroke-miterlimit:4;stroke-dasharray:none;stroke-opacity:1"
       id="rect3480-3"
       width="183.33324"
       height="99.587715"
       x="780.02289"
       y="1080.9279"
       transform="matrix(0.80336179,-0.59549125,0,1,0,0)" />
    <path
       style="fill:none;fill-rule:evenodd;stroke:#000000;stroke-width:2.1336906;stroke-linecap:butt;stroke-linejoin:miter;stroke-miterlimit:4;stroke-dasharray:none;stroke-opacity:1"
       d="M 413.87106,505.68338 264.8723,616.8175 l 0,0 0,0"
       id="path4482"
       inkscape:connector-curvature="0" />
    <path
       style="fill:none;fill-rule:evenodd;stroke:#000000;stroke-width:2.12920094;stroke-linecap:butt;stroke-linejoin:miter;stroke-miterlimit:4;stroke-dasharray:none;stroke-opacity:1"
       d="m 774.87738,506.01989 -361.64811,0 0,0 0,0"
       id="path4294"
       inkscape:connector-curvature="0" />
    <rect
       style="fill:#3e4837;fill-opacity:1;fill-rule:evenodd;stroke:#000000;stroke-width:13.56860447;stroke-linecap:butt;stroke-linejoin:miter;stroke-miterlimit:4;stroke-dasharray:none;stroke-opacity:1"
       id="box_opened"
       visibility="hidden"
       width="347.78574"
       height="240.49252"
       x="-656.17456"
       y="269.99435"
       transform="matrix(-0.99999998,2.0112409e-4,0.21604822,0.97638269,0,0)"
       inkscape:label="#box_opened" />
    <rect
       style="visibility:visible;fill:#6f917c;fill-opacity:1;fill-rule:evenodd;stroke:#000000;stroke-width:2.75853395;stroke-linecap:butt;stroke-linejoin:miter;stroke-miterlimit:4;stroke-dasharray:none;stroke-opacity:1"
       id="box_closed"
       visibility="visible"
       width="357.37985"
       height="184.42781"
       x="798.1377"
       y="850.27777"
       transform="matrix(1,0,-0.80319369,0.59571796,0,0)"
       inkscape:label="#box_closed" />
    <rect
       y="291.95926"
       x="-1206.6703"
       height="99.269501"
       width="357.79507"
       id="rect3531-2"
       style="fill:#554400;fill-opacity:1;fill-rule:evenodd;stroke:#000000;stroke-width:0.71035391;stroke-linecap:butt;stroke-linejoin:miter;stroke-miterlimit:4;stroke-dasharray:none;stroke-opacity:1" />
    <rect
       transform="matrix(0.80336179,-0.59549125,0,1,0,0)"
       y="-602.58868"
       x="-1685.4382"
       height="99.587715"
       width="183.33324"
       id="rect3529-6"
       style="fill:#554400;fill-opacity:1;fill-rule:evenodd;stroke:#000000;stroke-width:0.79253638;stroke-linecap:butt;stroke-linejoin:miter;stroke-miterlimit:4;stroke-dasharray:none;stroke-opacity:1" />
    <rect
       y="652.04926"
       x="-684.37781"
       height="182.69472"
       width="347.38318"
       id="rect3533-1"
       style="fill:#554400;fill-opacity:1;fill-rule:evenodd;stroke:#000000;stroke-width:0.91833818;stroke-linecap:butt;stroke-linejoin:miter;stroke-miterlimit:4;stroke-dasharray:none;stroke-opacity:1"
       transform="matrix(1,0,-0.80124614,0.59833488,0,0)" />
    <rect
       style="fill:#37483e;fill-opacity:1;fill-rule:evenodd;stroke:#000000;stroke-width:2.37760901;stroke-linecap:butt;stroke-linejoin:miter;stroke-miterlimit:4;stroke-dasharray:none;stroke-opacity:1"
       id="rect3480-3-8"
       width="183.33324"
       height="99.587715"
       x="-1237.1874"
       y="-335.53424"
       transform="matrix(0.80336179,-0.59549125,0,1,0,0)" />
    <rect
       style="fill:#37483e;fill-opacity:1;fill-rule:evenodd;stroke:#000000;stroke-width:2.14100003;stroke-linecap:butt;stroke-linejoin:miter;stroke-miterlimit:4;stroke-dasharray:none;stroke-opacity:1"
       id="rect3480-7"
       width="359.3288"
       height="99.804001"
       x="-1355.2606"
       y="401.80618" />
    <path
       style="fill:none;fill-rule:evenodd;stroke:#000000;stroke-width:2.1336906;stroke-linecap:butt;stroke-linejoin:miter;stroke-miterlimit:4;stroke-dasharray:none;stroke-opacity:1"
       d="m -1206.6785,290.45233 -148.9988,111.13412 0,0 0,0"
       id="path4482-9"
       inkscape:connector-curvature="0" />
    <rect
       style="visibility:visible;fill:#37483e;fill-opacity:1;fill-rule:evenodd;stroke:#000000;stroke-width:2.75853395;stroke-linecap:butt;stroke-linejoin:miter;stroke-miterlimit:4;stroke-dasharray:none;stroke-opacity:1"
       id="box_closed-2"
       visibility="visible"
       width="357.37985"
       height="184.42781"
       x="-89.153084"
       y="1116.4873"
       transform="matrix(1,0,-0.80319369,0.59571796,0,0)"
       inkscape:label="#box_closed" />
    <rect
       inkscape:label="#box_opened"
       transform="matrix(1,0,-0.80516581,-0.59304976,0,0)"
       y="-488.76819"
       x="-1601.3584"
       height="185.24106"
       width="359.8371"
       visibility="visible"
       id="box_opened-0"
       style="visibility:visible;fill:#554400;fill-opacity:1;fill-rule:evenodd;stroke:#000000;stroke-width:2.77409744;stroke-linecap:butt;stroke-linejoin:miter;stroke-miterlimit:4;stroke-dasharray:none;stroke-opacity:1" />
    <rect
       style="visibility:visible;fill:#554400;fill-opacity:1;fill-rule:evenodd;stroke:#000000;stroke-width:2.77409744;stroke-linecap:butt;stroke-linejoin:miter;stroke-miterlimit:4;stroke-dasharray:none;stroke-opacity:1"
       id="rect4333"
       visibility="visible"
       width="359.8371"
       height="185.24106"
       x="-816.49579"
       y="91.066055"
       transform="matrix(1,0,-0.80516581,0.59304976,0,0)"
       inkscape:label="#box_opened" />
  </g>
</svg>
